<svg height="200px" width="200px" version="1.1" id="_x32_" xmlns="http://www.w3.org/2000/svg" xmlns:xlink="http://www.w3.org/1999/xlink" viewBox="0 0 512 512" xml:space="preserve" fill="#ffffff" stroke="#ffffff"><g id="SVGRepo_bgCarrier" stroke-width="0"></g><g id="SVGRepo_tracerCarrier" stroke-linecap="round" stroke-linejoin="round"></g><g id="SVGRepo_iconCarrier"> <style type="text/css"> .st0{fill:#ffffff;} </style> <g> <path class="st0" d="M507.242,116.332c-4.603-10.87-12.226-20.046-21.854-26.555c-9.613-6.508-21.359-10.341-33.79-10.327h-39.099 H390.73h-1.327H51.165c-7.002,0-13.789,1.432-19.923,4.03c-9.212,3.903-16.977,10.362-22.49,18.508 C3.236,110.135-0.011,120.094,0,130.619v95.674c-0.004,28.418,5.77,55.608,16.221,80.3c15.671,37.037,41.792,68.484,74.7,90.718 c32.89,22.236,72.698,35.245,115.333,35.238c28.415,0.007,55.601-5.774,80.29-16.214c37.044-15.678,68.484-41.795,90.719-74.703 c4.278-6.31,8.195-12.889,11.76-19.679c0.565,0,1.129,0.056,1.708,0.056c16.673,0,32.682-3.396,47.21-9.544 c21.797-9.226,40.263-24.572,53.336-43.92c13.073-19.327,20.738-42.784,20.724-67.82c0-18.642,0-33.861,0-44.414 c0-10.567,0-16.446,0-16.461C512,131.579,510.313,123.575,507.242,116.332z M465.793,156.312c0,10.553,0,25.772,0,44.414 c0,10.432-2.096,20.244-5.887,29.216c-5.675,13.447-15.233,24.952-27.218,33.056c-7.722,5.202-16.404,8.979-25.764,11.033 c3.642-15.339,5.583-31.32,5.576-47.738V125.65h39.099c2.026,0,3.833,0.402,5.52,1.108c2.52,1.065,4.737,2.887,6.268,5.167 c1.532,2.294,2.4,4.906,2.407,7.927C465.793,139.866,465.793,145.745,465.793,156.312z"></path> </g> </g></svg>
